<?xml version="1.0" encoding="UTF-8"?>
<svg id="Layer_1" data-name="Layer 1" xmlns="http://www.w3.org/2000/svg" viewBox="0 0 100 100">
  <path d="M8.85,67.77c.19-.17,.39-.33,.61-.48,.94-.63,1.87-1.27,2.8-1.92-.42-.16-.81-.41-1.15-.75-.63-.65-.94-1.71-.94-3.19,0-.76,.07-1.57,.22-2.46,.14-.88,.31-1.77,.51-2.67,.2-.9,.4-1.79,.62-2.67,.22-.88,.41-1.72,.59-2.51,.65-.29,1.54-.49,2.67-.59,1.13-.11,2.33-.16,3.59-.16,1.08,0,2.11,.04,3.1,.11,.99,.07,1.81,.16,2.46,.27,.29,1.48,.58,3.07,.89,4.78,.02,.13,.05,.26,.07,.39,1.94-1.5,3.89-3,5.84-4.48-.15-.76-.31-1.52-.46-2.3-.52-2.66-.99-5.2-1.4-7.61-.41-2.41-.76-4.57-1.03-6.48-.27-1.91-.41-3.28-.41-4.1,0-.36,.09-.56,.27-.59,1.15-.07,2.2-.13,3.13-.16,.94-.04,1.73-.1,2.38-.19,.65-.09,1.15-.23,1.51-.43,.36-.2,.54-.49,.54-.89,0-.18-.07-.34-.22-.49-.14-.14-.25-.22-.32-.22-.14,.11-.64,.22-1.48,.32-.85,.11-1.9,.22-3.16,.32-1.26,.11-2.63,.2-4.1,.27-1.48,.07-2.92,.11-4.32,.11-.58,0-1.48-.02-2.73-.05-1.24-.04-2.64-.13-4.19-.27-1.55-.14-3.17-.33-4.86-.57-1.69-.23-3.26-.55-4.7-.94-.29,.18-.43,.43-.43,.76,0,.29,.06,.59,.19,.89,.13,.31,.26,.5,.4,.57,.72,.14,1.67,.27,2.83,.38,1.17,.11,2.37,.2,3.59,.27,1.22,.07,2.38,.13,3.48,.16,1.1,.04,1.93,.05,2.51,.05l-4.75,2.54c-.36,2.48-.81,5.07-1.35,7.75-.54,2.68-1.12,5.25-1.73,7.69-.61,2.45-1.22,4.7-1.84,6.75-.61,2.05-1.17,3.67-1.67,4.86-.72,1.76-1.36,3.16-1.92,4.18-.56,1.03-1.2,1.75-1.92,2.19-.68,.4-1.21,.67-1.57,.81-.18,.04-.27,.16-.27,.38,0,.14,.03,.28,.08,.41,.05,.13,.12,.19,.19,.19s.17-.02,.3-.05c.13-.04,.35-.07,.68-.11,.32-.04,.77-.07,1.32-.11,.56-.04,1.29-.05,2.19-.05,.65,0,1.33,.02,2.05,.05l1.27,.08Zm4.59-22.49c.34-1.33,.72-2.67,1.13-4.02,.41-1.35,.84-2.66,1.27-3.94,.43-1.28,.87-2.41,1.32-3.4,.45-.99,.87-1.78,1.27-2.38,.4-.59,.77-.89,1.13-.89,.18,0,.35,.13,.51,.38,.16,.25,.35,.86,.57,1.84,.14,.65,.33,1.58,.57,2.81,.23,1.22,.48,2.53,.73,3.92,.25,1.39,.49,2.75,.73,4.08,.23,1.33,.44,2.45,.62,3.35-.83,.11-1.74,.24-2.73,.41-.99,.16-1.98,.33-2.97,.51-.99,.18-1.93,.35-2.81,.51-.88,.16-1.61,.32-2.19,.46,.22-1.08,.49-2.29,.84-3.62Z"/>
  <path d="M37.6,66.56c-.18,0-.44,.02-.78,.05-.34,.04-.75,.05-1.21,.05-.32,0-.55,0-.68-.03-.13-.02-.28-.06-.46-.14-.32-.65-.71-1.86-1.16-3.64-.06-.25-.13-.52-.2-.79-2.54,1.95-5.07,3.93-7.61,5.88,.36-.03,.75-.06,1.19-.09,.5-.04,1.03-.07,1.59-.11,.56-.04,1.07-.05,1.54-.05,1.4,0,2.57,.02,3.48,.05,.92,.04,1.66,.06,2.24,.08,.58,.02,1.03,.04,1.35,.08,.32,.04,.58,.05,.76,.05,.25,0,.38-.13,.38-.38,0-.11-.04-.31-.11-.59-.07-.29-.18-.43-.32-.43Z"/>
  <path d="M46.49,40.09c.05-.2,.1-.41,.16-.61,.67-2.21,1.54-4.07,2.62-5.56,1.08-1.49,2.3-2.63,3.67-3.4,1.37-.77,2.75-1.16,4.16-1.16,1.2,0,2.28,.36,3.25,1.09,.28-.19,.56-.39,.85-.59,.74-.51,1.48-1.01,2.21-1.51-.26-.08-.52-.16-.8-.24-.86-.22-1.82-.32-2.86-.32-2.88,0-5.59,.4-8.13,1.21-2.54,.81-4.77,2.08-6.7,3.81-1.93,1.73-3.45,3.96-4.56,6.7-.71,1.75-1.17,3.76-1.43,5.97,2.52-1.8,5.04-3.6,7.57-5.38Z"/>
  <path d="M58.72,65.7c-.07,.04-.17,.05-.3,.05h-.3c-1.62,0-3.18-.39-4.67-1.16-1.49-.77-2.82-1.94-3.97-3.51-1.15-1.57-2.08-3.51-2.78-5.83-.25-.84-.44-1.74-.61-2.69-2.01,1.43-4.01,2.87-6.01,4.31,.92,2.22,2.11,4.12,3.59,5.69,1.49,1.58,3.19,2.82,5.08,3.7,1.89,.88,3.79,1.32,5.7,1.32,1.15,0,2.05-.1,2.7-.3,.65-.2,1.15-.42,1.51-.67,.07-.04,.14-.12,.19-.24,.05-.13,.1-.25,.13-.38,.04-.13,.04-.22,0-.3s-.13-.07-.27,0Z"/>
  <path d="M91.36,32.46c-1.39-1.39-3.11-2.49-5.18-3.32-.47-.19-.97-.36-1.47-.51-.96-.28-1.99-.49-3.07-.63-.64,.43-1.28,.87-1.92,1.3,2.69,.38,4.74,1.83,6.14,4.37,1.64,2.99,2.46,7.16,2.46,12.53,0,2.88-.28,5.54-.84,7.96-.56,2.43-1.32,4.54-2.29,6.32-.97,1.78-2.11,3.18-3.4,4.18-1.3,1.01-2.68,1.51-4.16,1.51h-.43c-.11,0-.25-.04-.43-.11-.11-.04-.22,0-.32,.13-.11,.13-.17,.28-.19,.46-.02,.18,0,.35,.08,.51,.07,.16,.22,.24,.43,.24,2.48,0,4.86-.55,7.13-1.65,2.27-1.1,4.27-2.69,5.99-4.78,1.73-2.09,3.1-4.63,4.13-7.64,1.03-3.01,1.54-6.44,1.54-10.29,0-2.05-.35-3.99-1.05-5.8-.7-1.82-1.75-3.42-3.13-4.81Z"/>
  <path d="M73.03,66.29c-1.3-.22-2.05-.76-2.27-1.62-.25-.76-.42-2.2-.51-4.35-.09-2.14-.12-4.65-.08-7.53,.04-3.92,.07-7.27,.11-10.04,.04-2.77,.14-4.79,.32-6.05,.05-.46,.14-.91,.27-1.36-1.54,1.05-3.09,2.1-4.63,3.16-.82,.56-1.64,1.13-2.46,1.7,0,.3,.01,.61,.01,.94v5.83c0,2.48-.05,4.84-.14,7.07-.09,2.23-.2,4.2-.32,5.91-.13,1.71-.27,3.09-.43,4.13-.16,1.04-.3,1.62-.41,1.73-.22,.18-.45,.32-.7,.43-.25,.11-.5,.18-.76,.22-.11,0-.19,.07-.24,.22-.05,.14-.08,.29-.08,.43s.04,.27,.11,.38c.07,.11,.2,.16,.38,.16,.22-.04,.83-.1,1.84-.19s2.18-.13,3.51-.13c1.66,0,2.93,.04,3.83,.11,.9,.07,1.62,.11,2.16,.11,.29,0,.52-.07,.7-.22,.18-.14,.27-.31,.27-.49,0-.32-.16-.5-.49-.54Z"/>
</svg>